<svg id="Layer_1" data-name="Layer 1" xmlns="http://www.w3.org/2000/svg" viewBox="0 0 528 184" width="1056" height="368"><defs><style>.cls-1{fill:#0075bc;}</style></defs><title>Artboard 2map</title><path class="cls-1" d="M11.73,82H0V0H58.67V11.71H70.4V35.14H58.67V46.86H23.47V82ZM35.2,35.14H46.93V11.71H23.47V35.14Z"/><path class="cls-1" d="M93.87,82H82.13V35.14H93.87V23.43H140.8V35.14H105.6V82Z"/><path class="cls-1" d="M199.47,82h-35.2V70.29H152.53V35.14h11.74V23.43H211.2V35.14h11.73V70.29H211.2V82ZM187.73,70.29h11.74V35.14H176V70.29Z"/><path class="cls-1" d="M281.6,70.29h11.73V82h-35.2V70.29H246.4V35.14H234.67V23.43H246.4V11.71h23.47V23.43h23.46V35.14H269.87V70.29Z"/><path class="cls-1" d="M363.73,70.29h11.74V82H316.8V70.29H305.07V35.14H316.8V23.43h46.93V35.14h11.74V58.57H328.53V70.29h35.2ZM340.27,46.86H352V35.14H328.53V46.86Z"/><path class="cls-1" d="M445.87,70.29H457.6V82H398.93V70.29H387.2V35.14h11.73V23.43H457.6V35.14H410.67V70.29h35.2Z"/><path class="cls-1" d="M516.27,70.29H528V82H492.8V70.29H481.07V35.14H469.33V23.43h11.74V11.71h23.46V23.43H528V35.14H504.53V70.29Z"/><path class="cls-1" d="M65.82,141.43h6.57V148H52.66v-6.57H46.08V121.71H39.5v-6.57h6.58v-6.57H59.24v6.57H72.39v6.57H59.24v19.72Z"/><path class="cls-1" d="M111.87,148h-6.58V121.71H92.13V148H79V102H92.13v13.14h19.74v6.57h6.58V148Z"/><path class="cls-1" d="M157.92,141.43h6.58V148H131.61v-6.57H125V121.71h6.58v-6.57h26.31v6.57h6.58v13.15H138.18v6.57h19.74Zm-13.16-13.14h6.58v-6.58H138.18v6.58Z"/><path class="cls-1" d="M230.42,184H183.5V102h58.65v11.71h11.73v58.58H242.15V184Zm-11.73-11.71h11.73V113.71H207v58.58Z"/><path class="cls-1" d="M324.27,172.29H336V184H277.35V172.29H265.62V137.14h11.73V125.43h46.92v11.71H336v23.43H289.08v11.72h35.19Zm-23.46-23.43h11.73V137.14H289.08v11.72Z"/><path class="cls-1" d="M394.65,184H347.73V172.29h35.19V160.57H359.46V148.86H347.73V137.14h11.73V125.43h46.92v11.71H382.92v11.72h23.46v11.71h11.74v11.72H406.38V184Z"/><path class="cls-1" d="M476.77,184H465V172.29H453.31V184H429.85V102h23.46v35.14H465V125.43H488.5v11.71H476.77v11.72H465v11.71h11.73v11.72H488.5V184Z"/></svg>